<svg width="196" height="118" viewBox="0 0 196 118" fill="none" xmlns="http://www.w3.org/2000/svg">
<path d="M15.945 30.9689C14.1357 30.9689 12.5143 30.6752 11.081 30.0877C9.64765 29.5003 8.49627 28.6309 7.62687 27.4795C6.78096 26.3281 6.33451 24.9418 6.28751 23.3205H12.7023C12.7963 24.2369 13.1135 24.9418 13.654 25.4352C14.1944 25.9052 14.8993 26.1402 15.7687 26.1402C16.6616 26.1402 17.3666 25.9404 17.8835 25.541C18.4004 25.118 18.6589 24.5423 18.6589 23.8139C18.6589 23.203 18.4474 22.6978 18.0245 22.2983C17.625 21.8989 17.1198 21.5699 16.5089 21.3114C15.9215 21.053 15.0756 20.7593 13.9712 20.4303C12.3733 19.9368 11.0692 19.4434 10.0589 18.95C9.04846 18.4565 8.17906 17.7281 7.45064 16.7647C6.72222 15.8013 6.35801 14.5442 6.35801 12.9934C6.35801 10.6906 7.19216 8.89306 8.86048 7.6007C10.5288 6.28484 12.7023 5.62691 15.381 5.62691C18.1067 5.62691 20.3037 6.28484 21.972 7.6007C23.6404 8.89306 24.5333 10.7024 24.6508 13.0286H18.1302C18.0832 12.2297 17.7895 11.607 17.2491 11.1606C16.7086 10.6906 16.0154 10.4556 15.1695 10.4556C14.4411 10.4556 13.8537 10.6554 13.4072 11.0548C12.9608 11.4308 12.7376 11.983 12.7376 12.7114C12.7376 13.5103 13.1135 14.133 13.8654 14.5794C14.6174 15.0259 15.7922 15.5076 17.39 16.0245C18.9879 16.565 20.2802 17.0819 21.2671 17.5754C22.2775 18.0688 23.1469 18.7855 23.8753 19.7254C24.6038 20.6653 24.968 21.8754 24.968 23.3557C24.968 24.7656 24.6038 26.0462 23.8753 27.1976C23.1704 28.3489 22.1365 29.2653 20.7737 29.9468C19.4108 30.6282 17.8013 30.9689 15.945 30.9689ZM32.9419 13.8393C33.5293 12.9229 34.34 12.1827 35.3738 11.6188C36.4077 11.0548 37.6178 10.7728 39.0042 10.7728C40.6255 10.7728 42.0941 11.1841 43.41 12.0065C44.7258 12.8289 45.7597 14.0037 46.5116 15.5311C47.287 17.0584 47.6747 18.8325 47.6747 20.8532C47.6747 22.874 47.287 24.6598 46.5116 26.2107C45.7597 27.738 44.7258 28.9246 43.41 29.7705C42.0941 30.5929 40.6255 31.0041 39.0042 31.0041C37.6413 31.0041 36.4312 30.7222 35.3738 30.1582C34.34 29.5943 33.5293 28.8659 32.9419 27.973V40.0976H26.9148V11.0548H32.9419V13.8393ZM41.5419 20.8532C41.5419 19.3494 41.119 18.1745 40.2731 17.3286C39.4506 16.4592 38.4285 16.0245 37.2066 16.0245C36.0083 16.0245 34.9861 16.4592 34.1402 17.3286C33.3178 18.198 32.9066 19.3847 32.9066 20.8885C32.9066 22.3923 33.3178 23.5789 34.1402 24.4484C34.9861 25.3178 36.0083 25.7525 37.2066 25.7525C38.405 25.7525 39.4272 25.3178 40.2731 24.4484C41.119 23.5555 41.5419 22.3571 41.5419 20.8532ZM47.876 20.8532C47.876 18.8325 48.252 17.0584 49.0039 15.5311C49.7793 14.0037 50.825 12.8289 52.1408 12.0065C53.4567 11.1841 54.9253 10.7728 56.5466 10.7728C57.9329 10.7728 59.1431 11.0548 60.1769 11.6188C61.2343 12.1827 62.045 12.9229 62.6089 13.8393V11.0548H68.636V30.7222H62.6089V27.9377C62.0215 28.8541 61.1991 29.5943 60.1417 30.1582C59.1078 30.7222 57.8977 31.0041 56.5113 31.0041C54.9135 31.0041 53.4567 30.5929 52.1408 29.7705C50.825 28.9246 49.7793 27.738 49.0039 26.2107C48.252 24.6598 47.876 22.874 47.876 20.8532ZM62.6089 20.8885C62.6089 19.3847 62.186 18.198 61.3401 17.3286C60.5177 16.4592 59.5073 16.0245 58.3089 16.0245C57.1105 16.0245 56.0884 16.4592 55.2425 17.3286C54.4201 18.1745 54.0089 19.3494 54.0089 20.8532C54.0089 22.3571 54.4201 23.5555 55.2425 24.4484C56.0884 25.3178 57.1105 25.7525 58.3089 25.7525C59.5073 25.7525 60.5177 25.3178 61.3401 24.4484C62.186 23.5789 62.6089 22.3923 62.6089 20.8885ZM70.0357 20.8885C70.0357 18.8442 70.4469 17.0584 71.2693 15.5311C72.1152 14.0037 73.2783 12.8289 74.7587 12.0065C76.2625 11.1841 77.9778 10.7728 79.9046 10.7728C82.3718 10.7728 84.4279 11.419 86.0727 12.7114C87.741 14.0037 88.8336 15.8248 89.3506 18.1745H82.9358C82.3953 16.6707 81.3497 15.9188 79.7989 15.9188C78.6945 15.9188 77.8133 16.3535 77.1554 17.2229C76.4975 18.0688 76.1685 19.2907 76.1685 20.8885C76.1685 22.4863 76.4975 23.7199 77.1554 24.5893C77.8133 25.4352 78.6945 25.8582 79.7989 25.8582C81.3497 25.8582 82.3953 25.1063 82.9358 23.6024H89.3506C88.8336 25.9052 87.741 27.7145 86.0727 29.0304C84.4044 30.3462 82.3483 31.0041 79.9046 31.0041C77.9778 31.0041 76.2625 30.5929 74.7587 29.7705C73.2783 28.9481 72.1152 27.7732 71.2693 26.2459C70.4469 24.7186 70.0357 22.9328 70.0357 20.8885ZM109.352 20.5713C109.352 21.1352 109.316 21.7227 109.246 22.3336H95.6056C95.6996 23.5555 96.0873 24.4953 96.7688 25.1533C97.4737 25.7877 98.3313 26.1049 99.3417 26.1049C100.846 26.1049 101.891 25.4705 102.479 24.2016H108.893C108.564 25.494 107.965 26.6571 107.096 27.691C106.25 28.7249 105.181 29.5355 103.888 30.123C102.596 30.7104 101.151 31.0041 99.5532 31.0041C97.6264 31.0041 95.9111 30.5929 94.4073 29.7705C92.9034 28.9481 91.7286 27.7732 90.8827 26.2459C90.0368 24.7186 89.6138 22.9328 89.6138 20.8885C89.6138 18.8442 90.025 17.0584 90.8474 15.5311C91.6933 14.0037 92.8682 12.8289 94.372 12.0065C95.8759 11.1841 97.6029 10.7728 99.5532 10.7728C101.457 10.7728 103.148 11.1723 104.629 11.9712C106.109 12.7701 107.26 13.9098 108.083 15.3901C108.929 16.8704 109.352 18.5975 109.352 20.5713ZM103.184 18.9852C103.184 17.9513 102.831 17.1289 102.126 16.518C101.421 15.907 100.54 15.6016 99.4827 15.6016C98.4723 15.6016 97.6147 15.8953 96.9098 16.4827C96.2283 17.0702 95.8054 17.9043 95.6409 18.9852H103.184Z" fill="#FFFFFF"/>
<path d="M25.1122 56.9751C25.1122 58.462 24.7709 59.8271 24.0884 61.0702C23.4059 62.289 22.3577 63.2762 20.9439 64.0319C19.5301 64.7875 17.7751 65.1654 15.6787 65.1654H11.803V74.3794H5.55062V48.7117H15.6787C17.7263 48.7117 19.457 49.0652 20.8708 49.7721C22.2846 50.479 23.3449 51.454 24.0518 52.6972C24.7587 53.9403 25.1122 55.3663 25.1122 56.9751ZM15.2034 60.1927C16.3978 60.1927 17.2875 59.9124 17.8726 59.3517C18.4576 58.7911 18.7501 57.9989 18.7501 56.9751C18.7501 55.9513 18.4576 55.1591 17.8726 54.5985C17.2875 54.0378 16.3978 53.7575 15.2034 53.7575H11.803V60.1927H15.2034ZM32.7914 47.3223V74.3794H26.539V47.3223H32.7914ZM34.2511 64.1416C34.2511 62.0453 34.6411 60.2049 35.4211 58.6205C36.2255 57.0361 37.3102 55.8173 38.6753 54.9641C40.0403 54.111 41.5638 53.6844 43.2457 53.6844C44.6839 53.6844 45.9392 53.9769 47.0118 54.5619C48.1087 55.1469 48.9496 55.9148 49.5347 56.8654V53.9769H55.787V74.3794H49.5347V71.4909C48.9253 72.4415 48.0721 73.2094 46.9752 73.7944C45.9027 74.3794 44.6473 74.6719 43.2091 74.6719C41.5516 74.6719 40.0403 74.2453 38.6753 73.3922C37.3102 72.5146 36.2255 71.2837 35.4211 69.6993C34.6411 68.0905 34.2511 66.2379 34.2511 64.1416ZM49.5347 64.1781C49.5347 62.6181 49.0959 61.3871 48.2184 60.4852C47.3652 59.5833 46.3171 59.1324 45.0739 59.1324C43.8307 59.1324 42.7704 59.5833 41.8929 60.4852C41.0397 61.3627 40.6131 62.5815 40.6131 64.1416C40.6131 65.7016 41.0397 66.9448 41.8929 67.8711C42.7704 68.773 43.8307 69.2239 45.0739 69.2239C46.3171 69.2239 47.3652 68.773 48.2184 67.8711C49.0959 66.9692 49.5347 65.7382 49.5347 64.1781ZM70.9138 53.7575C73.3026 53.7575 75.2039 54.5375 76.6177 56.0976C78.0559 57.6333 78.775 59.7539 78.775 62.4597V74.3794H72.5592V63.3006C72.5592 61.9356 72.2057 60.8752 71.4988 60.1196C70.7919 59.3639 69.8413 58.9861 68.6469 58.9861C67.4524 58.9861 66.5018 59.3639 65.7949 60.1196C65.088 60.8752 64.7346 61.9356 64.7346 63.3006V74.3794H58.4822V53.9769H64.7346V56.6826C65.3683 55.7807 66.2215 55.0738 67.294 54.5619C68.3665 54.0256 69.5731 53.7575 70.9138 53.7575ZM93.7232 53.7575C96.112 53.7575 98.0133 54.5375 99.4271 56.0976C100.865 57.6333 101.584 59.7539 101.584 62.4597V74.3794H95.3686V63.3006C95.3686 61.9356 95.0151 60.8752 94.3082 60.1196C93.6013 59.3639 92.6507 58.9861 91.4563 58.9861C90.2619 58.9861 89.3112 59.3639 88.6043 60.1196C87.8974 60.8752 87.544 61.9356 87.544 63.3006V74.3794H81.2916V53.9769H87.544V56.6826C88.1777 55.7807 89.0309 55.0738 90.1034 54.5619C91.176 54.0256 92.3826 53.7575 93.7232 53.7575ZM107.245 51.8562C106.149 51.8562 105.247 51.5393 104.54 50.9056C103.857 50.2474 103.516 49.443 103.516 48.4924C103.516 47.5173 103.857 46.7129 104.54 46.0792C105.247 45.421 106.149 45.0919 107.245 45.0919C108.318 45.0919 109.196 45.421 109.878 46.0792C110.585 46.7129 110.938 47.5173 110.938 48.4924C110.938 49.443 110.585 50.2474 109.878 50.9056C109.196 51.5393 108.318 51.8562 107.245 51.8562ZM110.353 53.9769V74.3794H104.101V53.9769H110.353ZM125.488 53.7575C127.877 53.7575 129.778 54.5375 131.192 56.0976C132.63 57.6333 133.349 59.7539 133.349 62.4597V74.3794H127.133V63.3006C127.133 61.9356 126.78 60.8752 126.073 60.1196C125.366 59.3639 124.415 58.9861 123.221 58.9861C122.027 58.9861 121.076 59.3639 120.369 60.1196C119.662 60.8752 119.309 61.9356 119.309 63.3006V74.3794H113.056V53.9769H119.309V56.6826C119.942 55.7807 120.796 55.0738 121.868 54.5619C122.941 54.0256 124.147 53.7575 125.488 53.7575ZM143.617 53.6844C145.055 53.6844 146.311 53.9769 147.383 54.5619C148.48 55.1469 149.321 55.9148 149.906 56.8654V53.9769H156.158V74.3428C156.158 76.2198 155.781 77.9139 155.025 79.4252C154.294 80.9608 153.16 82.1796 151.625 83.0815C150.113 83.9834 148.224 84.4344 145.957 84.4344C142.935 84.4344 140.485 83.7153 138.608 82.2771C136.731 80.8633 135.658 78.9377 135.39 76.5001H141.57C141.765 77.2801 142.228 77.8895 142.959 78.3283C143.69 78.7914 144.592 79.023 145.665 79.023C146.957 79.023 147.98 78.6452 148.736 77.8895C149.516 77.1582 149.906 75.976 149.906 74.3428V71.4543C149.297 72.405 148.456 73.185 147.383 73.7944C146.311 74.3794 145.055 74.6719 143.617 74.6719C141.935 74.6719 140.412 74.2453 139.047 73.3922C137.682 72.5146 136.597 71.2837 135.793 69.6993C135.012 68.0905 134.622 66.2379 134.622 64.1416C134.622 62.0453 135.012 60.2049 135.793 58.6205C136.597 57.0361 137.682 55.8173 139.047 54.9641C140.412 54.111 141.935 53.6844 143.617 53.6844ZM149.906 64.1781C149.906 62.6181 149.467 61.3871 148.59 60.4852C147.737 59.5833 146.688 59.1324 145.445 59.1324C144.202 59.1324 143.142 59.5833 142.264 60.4852C141.411 61.3627 140.985 62.5815 140.985 64.1416C140.985 65.7016 141.411 66.9448 142.264 67.8711C143.142 68.773 144.202 69.2239 145.445 69.2239C146.688 69.2239 147.737 68.773 148.59 67.8711C149.467 66.9692 149.906 65.7382 149.906 64.1781Z" fill="#FFFFFF"/>
<path d="M25.8194 90.064C28.1221 90.064 29.9549 90.816 31.3178 92.3198C32.7041 93.8001 33.3973 95.8444 33.3973 98.4526V109.943H27.4054V99.2633C27.4054 97.9474 27.0647 96.9253 26.3833 96.1969C25.7019 95.4685 24.7855 95.1042 23.6341 95.1042C22.4827 95.1042 21.5663 95.4685 20.8849 96.1969C20.2035 96.9253 19.8628 97.9474 19.8628 99.2633V109.943H13.8357V90.2755H19.8628V92.8837C20.4737 92.0143 21.2961 91.3329 22.33 90.8395C23.3639 90.3225 24.527 90.064 25.8194 90.064ZM46.7848 104.832V109.943H43.7183C41.5331 109.943 39.8295 109.414 38.6076 108.357C37.3858 107.276 36.7748 105.525 36.7748 103.105V95.2805H34.3781V90.2755H36.7748V85.482H42.8019V90.2755H46.7495V95.2805H42.8019V103.176C42.8019 103.763 42.9429 104.186 43.2249 104.444C43.5069 104.703 43.9768 104.832 44.6347 104.832H46.7848ZM66.9191 99.792C66.9191 100.356 66.8839 100.943 66.8134 101.554H53.1731C53.2671 102.776 53.6548 103.716 54.3362 104.374C55.0412 105.008 55.8988 105.326 56.9092 105.326C58.413 105.326 59.4587 104.691 60.0461 103.422H66.4609C66.1319 104.715 65.5328 105.878 64.6634 106.912C63.8175 107.946 62.7483 108.756 61.456 109.344C60.1636 109.931 58.7185 110.225 57.1207 110.225C55.1939 110.225 53.4786 109.814 51.9747 108.991C50.4709 108.169 49.296 106.994 48.4501 105.467C47.6042 103.939 47.1813 102.153 47.1813 100.109C47.1813 98.0649 47.5925 96.2791 48.4149 94.7518C49.2608 93.2244 50.4357 92.0496 51.9395 91.2272C53.4433 90.4048 55.1704 89.9936 57.1207 89.9936C59.024 89.9936 60.7158 90.393 62.1961 91.1919C63.6765 91.9908 64.8278 93.1305 65.6503 94.6108C66.4962 96.0911 66.9191 97.8182 66.9191 99.792ZM60.751 98.2059C60.751 97.172 60.3986 96.3496 59.6937 95.7387C58.9887 95.1277 58.1076 94.8223 57.0502 94.8223C56.0398 94.8223 55.1821 95.116 54.4772 95.7034C53.7958 96.2909 53.3728 97.125 53.2084 98.2059H60.751ZM74.3635 93.5534C75.0684 92.4725 75.9496 91.6266 77.0069 91.0157C78.0643 90.3813 79.2392 90.064 80.5316 90.064V96.4436H78.875C77.3712 96.4436 76.2433 96.7726 75.4914 97.4305C74.7394 98.0649 74.3635 99.1928 74.3635 100.814V109.943H68.3364V90.2755H74.3635V93.5534ZM84.6812 88.2312C83.6239 88.2312 82.7544 87.9258 82.073 87.3148C81.4151 86.6804 81.0861 85.905 81.0861 84.9886C81.0861 84.0487 81.4151 83.2733 82.073 82.6624C82.7544 82.0279 83.6239 81.7107 84.6812 81.7107C85.7151 81.7107 86.561 82.0279 87.219 82.6624C87.9004 83.2733 88.2411 84.0487 88.2411 84.9886C88.2411 85.905 87.9004 86.6804 87.219 87.3148C86.561 87.9258 85.7151 88.2312 84.6812 88.2312ZM87.6772 90.2755V109.943H81.6501V90.2755H87.6772ZM99.2351 110.225C97.3084 110.225 95.5695 109.814 94.0187 108.991C92.4914 108.169 91.2813 106.994 90.3884 105.467C89.519 103.939 89.0843 102.153 89.0843 100.109C89.0843 98.0884 89.5307 96.3144 90.4236 94.787C91.3165 93.2362 92.5384 92.0496 94.0892 91.2272C95.64 90.4048 97.3788 89.9936 99.3056 89.9936C101.232 89.9936 102.971 90.4048 104.522 91.2272C106.073 92.0496 107.295 93.2362 108.188 94.787C109.081 96.3144 109.527 98.0884 109.527 100.109C109.527 102.13 109.069 103.916 108.152 105.467C107.26 106.994 106.026 108.169 104.452 108.991C102.901 109.814 101.162 110.225 99.2351 110.225ZM99.2351 105.008C100.387 105.008 101.362 104.585 102.161 103.74C102.983 102.894 103.394 101.684 103.394 100.109C103.394 98.5349 102.995 97.3248 102.196 96.4788C101.42 95.6329 100.457 95.21 99.3056 95.21C98.1308 95.21 97.1556 95.6329 96.3802 96.4788C95.6048 97.3013 95.2171 98.5114 95.2171 100.109C95.2171 101.684 95.593 102.894 96.345 103.74C97.1204 104.585 98.0838 105.008 99.2351 105.008ZM116.989 93.5534C117.694 92.4725 118.575 91.6266 119.633 91.0157C120.69 90.3813 121.865 90.064 123.157 90.064V96.4436H121.501C119.997 96.4436 118.869 96.7726 118.117 97.4305C117.365 98.0649 116.989 99.1928 116.989 100.814V109.943H110.962V90.2755H116.989V93.5534ZM132.277 110.225C130.561 110.225 129.034 109.931 127.695 109.344C126.355 108.756 125.298 107.957 124.523 106.947C123.747 105.913 123.312 104.762 123.218 103.493H129.175C129.246 104.174 129.563 104.726 130.127 105.149C130.691 105.572 131.384 105.784 132.206 105.784C132.958 105.784 133.534 105.643 133.933 105.361C134.356 105.055 134.568 104.668 134.568 104.198C134.568 103.634 134.274 103.223 133.687 102.964C133.099 102.682 132.148 102.377 130.832 102.048C129.422 101.719 128.247 101.378 127.307 101.026C126.367 100.65 125.556 100.074 124.875 99.2985C124.194 98.4996 123.853 97.4305 123.853 96.0911C123.853 94.9633 124.158 93.9411 124.769 93.0247C125.404 92.0848 126.32 91.3447 127.519 90.8042C128.74 90.2638 130.185 89.9936 131.854 89.9936C134.321 89.9936 136.26 90.6045 137.669 91.8264C139.103 93.0482 139.925 94.6695 140.137 96.6903H134.568C134.474 96.0089 134.168 95.4685 133.651 95.069C133.158 94.6695 132.5 94.4698 131.678 94.4698C130.973 94.4698 130.432 94.6108 130.056 94.8928C129.68 95.1512 129.492 95.5154 129.492 95.9854C129.492 96.5493 129.786 96.9723 130.373 97.2543C130.984 97.5362 131.924 97.8182 133.193 98.1002C134.65 98.4761 135.837 98.8521 136.753 99.228C137.669 99.5805 138.468 100.168 139.15 100.99C139.855 101.789 140.219 102.87 140.242 104.233C140.242 105.384 139.913 106.418 139.255 107.335C138.621 108.228 137.693 108.932 136.471 109.449C135.273 109.966 133.875 110.225 132.277 110.225ZM144.987 110.225C143.93 110.225 143.06 109.919 142.379 109.308C141.721 108.674 141.392 107.899 141.392 106.982C141.392 106.042 141.721 105.255 142.379 104.621C143.06 103.986 143.93 103.669 144.987 103.669C146.021 103.669 146.867 103.986 147.525 104.621C148.206 105.255 148.547 106.042 148.547 106.982C148.547 107.899 148.206 108.674 147.525 109.308C146.867 109.919 146.021 110.225 144.987 110.225ZM153.172 110.225C152.115 110.225 151.245 109.919 150.564 109.308C149.906 108.674 149.577 107.899 149.577 106.982C149.577 106.042 149.906 105.255 150.564 104.621C151.245 103.986 152.115 103.669 153.172 103.669C154.206 103.669 155.052 103.986 155.71 104.621C156.391 105.255 156.732 106.042 156.732 106.982C156.732 107.899 156.391 108.674 155.71 109.308C155.052 109.919 154.206 110.225 153.172 110.225Z" fill="#FFFFFF"/>
<path d="M6 116.564V80H10.5705V116.564H6Z" fill="#FFFFFF" stroke="#FFFFFF" stroke-width="1.52348"/>
</svg>
